<?xml version="1.0" encoding="utf-8"?>
<!-- Generator: Adobe Illustrator 22.0.1, SVG Export Plug-In . SVG Version: 6.00 Build 0)  -->
<svg version="1.1" id="Layer_1" xmlns="http://www.w3.org/2000/svg" xmlns:xlink="http://www.w3.org/1999/xlink" x="0px" y="0px"
	 viewBox="0 0 320 320" style="enable-background:new 0 0 320 320;" xml:space="preserve">
<g>
	<circle cx="158" cy="159" r="41"/>
	<path d="M265.3,90.6c5-10.4,3.2-23.2-5.4-31.8c-8.5-8.5-21.2-10.4-31.5-5.5c-20-13.2-43.9-20.8-69.5-20.8
		C88.9,32.5,32.3,89.1,32.3,159s56.7,126.5,126.5,126.5S285.4,228.9,285.4,159C285.4,133.8,278,110.3,265.3,90.6z M158.8,262
		c-56.9,0-103-46.1-103-103c0-56.9,46.1-103,103-103c20,0,38.6,5.7,54.4,15.5c-2.4,9.2,0.1,19.4,7.3,26.6c7.1,7.1,17.2,9.6,26.3,7.3
		c9.5,15.6,15,33.9,15,53.5C261.8,215.9,215.7,262,158.8,262z"/>
</g>
</svg>
