<?xml version="1.0" standalone="no"?>
<!DOCTYPE svg PUBLIC "-//W3C//DTD SVG 20010904//EN"
 "http://www.w3.org/TR/2001/REC-SVG-20010904/DTD/svg10.dtd">
<svg version="1.0" xmlns="http://www.w3.org/2000/svg"
 width="1650.000000pt" height="1650.000000pt" viewBox="0 0 1650.000000 1650.000000"
 preserveAspectRatio="xMidYMid meet">
<metadata>
Created by potrace 1.11, written by Peter Selinger 2001-2013
</metadata>
<g transform="translate(0.000000,1650.000000) scale(0.100000,-0.100000)"
fill="#000000" stroke="none">
<path d="M7949 16116 c-2 -2 -65 -7 -139 -10 -74 -4 -151 -9 -170 -10 -19 -2
-69 -7 -110 -11 -120 -10 -153 -14 -195 -19 -22 -3 -62 -8 -90 -11 -27 -3 -61
-8 -75 -10 -14 -3 -47 -7 -75 -11 -27 -3 -59 -8 -70 -10 -10 -2 -35 -6 -55 -9
-20 -3 -45 -7 -55 -9 -19 -4 -165 -31 -215 -40 -105 -19 -351 -78 -585 -140
-164 -44 -615 -196 -760 -256 -34 -15 -169 -71 -190 -79 -147 -60 -478 -221
-671 -327 -339 -184 -768 -464 -1044 -681 -129 -101 -333 -270 -390 -323 -9
-8 -59 -53 -111 -100 -175 -157 -468 -458 -644 -660 -26 -30 -59 -68 -74 -85
-46 -53 -245 -307 -322 -410 -356 -482 -706 -1102 -924 -1640 -20 -49 -43
-104 -51 -122 -8 -17 -14 -34 -14 -38 0 -4 -6 -21 -14 -38 -89 -201 -302 -918
-341 -1147 -3 -19 -10 -51 -15 -70 -5 -19 -11 -48 -14 -65 -2 -16 -14 -80 -25
-141 -21 -111 -55 -335 -65 -429 -15 -132 -18 -152 -21 -180 -2 -16 -7 -66
-10 -110 -4 -44 -8 -100 -10 -125 -23 -270 -23 -846 0 -1115 2 -27 7 -84 10
-125 4 -41 8 -91 10 -110 10 -97 18 -167 20 -180 1 -8 6 -42 10 -75 4 -32 9
-68 11 -80 2 -11 6 -38 9 -60 3 -22 7 -49 9 -60 2 -11 11 -63 20 -115 36 -208
67 -353 128 -595 69 -275 164 -577 258 -825 18 -47 38 -101 45 -120 117 -313
349 -783 563 -1140 434 -725 949 -1339 1607 -1916 39 -34 86 -74 105 -90 19
-16 37 -31 40 -34 8 -9 295 -234 320 -250 12 -8 50 -36 84 -61 425 -319 1122
-706 1626 -903 52 -21 104 -42 115 -47 22 -9 40 -17 160 -61 272 -101 681
-221 950 -279 49 -11 99 -22 110 -24 20 -5 98 -20 148 -30 15 -3 38 -7 52 -10
26 -5 116 -21 170 -29 63 -11 242 -35 290 -41 28 -3 64 -7 80 -10 29 -5 56 -7
210 -20 39 -3 87 -8 108 -10 211 -24 867 -24 1172 0 157 12 213 17 240 20 52
7 118 15 170 20 28 3 61 8 75 10 14 3 45 7 70 10 25 3 56 7 70 10 14 3 40 7
58 10 241 38 432 78 702 147 817 207 1597 550 2325 1022 77 50 158 104 181
121 22 16 75 55 118 85 85 61 212 156 266 199 75 60 276 225 286 235 6 6 39
36 74 66 191 166 473 448 674 673 161 180 449 542 544 683 7 11 36 53 65 94
46 65 140 208 187 284 49 80 176 295 188 320 8 17 23 43 33 57 26 36 228 443
279 559 23 52 51 115 61 140 11 25 24 54 29 65 63 135 272 738 295 850 2 6 12
42 23 80 12 39 23 81 26 95 3 14 17 70 31 125 24 97 89 400 98 460 3 17 12 71
21 120 8 50 18 110 21 135 3 25 8 56 10 70 2 14 7 50 10 80 3 30 8 69 10 85 8
59 15 121 20 190 3 39 8 90 10 115 26 262 26 1084 1 1240 -3 14 -7 65 -11 114
-4 50 -8 97 -10 105 -1 9 -6 52 -11 96 -4 44 -8 82 -9 85 0 3 -5 32 -9 65 -4
32 -9 66 -11 75 -1 8 -5 36 -9 61 -8 58 -23 143 -42 246 -6 31 -41 206 -55
268 -17 83 -79 325 -114 445 -47 165 -165 522 -176 535 -5 5 -9 17 -9 27 0 10
-5 26 -10 36 -6 9 -33 75 -60 145 -154 393 -408 894 -641 1259 -38 60 -69 115
-69 121 0 7 15 44 34 82 37 76 88 221 106 300 19 84 20 89 26 130 3 22 10 60
14 85 11 56 10 366 -1 423 -4 23 -10 60 -13 82 -5 34 -25 119 -40 175 -28 98
-128 327 -178 405 -7 11 -26 40 -42 65 -89 138 -253 310 -404 422 -284 212
-660 334 -1012 329 -84 -1 -200 -8 -236 -15 -11 -2 -39 -7 -64 -11 -115 -18
-294 -74 -417 -131 -40 -19 -78 -34 -84 -34 -6 0 -29 13 -52 29 -59 39 -322
197 -442 264 -101 56 -518 267 -528 267 -3 0 -38 15 -79 34 -111 52 -375 157
-548 219 -145 52 -430 144 -468 152 -9 2 -57 14 -107 28 -80 23 -166 44 -370
92 -113 27 -260 55 -420 80 -156 25 -183 29 -275 40 -25 4 -56 8 -70 10 -14 2
-58 7 -97 10 -40 3 -80 8 -90 9 -10 2 -65 7 -123 11 -58 3 -121 9 -140 11 -41
5 -796 14 -801 10z m711 -1360 c47 -4 105 -8 130 -10 188 -18 230 -22 305 -32
28 -4 57 -8 65 -9 51 -7 128 -19 220 -35 58 -11 121 -22 140 -25 19 -3 55 -11
80 -16 25 -6 56 -13 70 -15 154 -29 725 -195 747 -218 4 -3 12 -6 19 -6 14 0
311 -114 392 -151 208 -94 287 -132 422 -201 85 -44 163 -86 175 -93 11 -7 79
-47 152 -89 l131 -77 -13 -47 c-12 -43 -24 -111 -41 -232 -20 -146 -1 -412 43
-590 98 -400 361 -773 707 -1001 93 -61 291 -163 342 -175 16 -4 34 -10 39
-14 9 -7 151 -46 199 -56 68 -13 139 -24 196 -30 79 -8 284 -7 342 1 97 14
220 36 242 44 12 5 27 6 33 3 18 -12 183 -301 278 -487 168 -330 318 -696 414
-1010 12 -38 28 -90 36 -115 33 -101 120 -459 140 -570 3 -19 7 -44 10 -55 2
-11 13 -78 25 -150 11 -71 23 -141 25 -155 2 -14 7 -50 10 -80 3 -30 8 -66 10
-80 2 -14 7 -59 11 -100 3 -41 8 -88 10 -105 24 -229 24 -782 -1 -1075 -5 -65
-16 -175 -20 -205 -9 -60 -27 -201 -31 -235 -5 -40 -25 -157 -39 -230 -38
-197 -95 -437 -142 -600 -9 -30 -16 -57 -16 -60 0 -13 -130 -389 -172 -495
-121 -309 -294 -670 -434 -905 -420 -703 -911 -1280 -1501 -1764 -52 -43 -106
-87 -118 -98 -180 -150 -634 -450 -907 -598 -162 -88 -443 -225 -565 -275 -36
-14 -78 -32 -95 -40 -16 -7 -93 -36 -169 -65 -412 -154 -847 -268 -1276 -335
-19 -3 -46 -7 -60 -10 -14 -2 -50 -7 -80 -10 -30 -4 -66 -8 -80 -10 -46 -7
-115 -14 -195 -21 -44 -4 -93 -8 -110 -10 -65 -6 -367 -17 -495 -17 -136 0
-450 11 -505 18 -16 2 -66 6 -110 10 -44 3 -91 7 -105 10 -14 2 -46 6 -72 9
-97 12 -137 17 -159 21 -13 3 -41 7 -64 10 -60 9 -147 23 -175 30 -14 3 -41 8
-60 11 -19 3 -55 10 -80 16 -25 5 -56 12 -70 14 -74 14 -364 90 -490 128 -836
255 -1569 647 -2248 1202 -174 143 -258 220 -468 429 -261 261 -404 424 -603
690 -62 83 -118 157 -125 165 -6 8 -55 80 -107 160 -394 596 -676 1226 -864
1923 -14 53 -28 105 -30 115 -2 9 -11 49 -20 87 -15 66 -48 224 -59 290 -3 17
-8 39 -10 50 -8 41 -30 187 -40 270 -4 28 -9 59 -11 70 -2 11 -7 56 -10 100
-4 44 -8 91 -11 105 -2 14 -6 68 -9 120 -3 52 -8 120 -10 150 -6 73 -6 568 0
645 2 33 7 103 10 155 3 52 8 109 10 125 2 17 7 61 10 99 3 38 7 79 10 90 2
12 7 44 9 71 20 195 99 586 178 875 47 175 167 539 208 635 5 11 18 41 29 67
12 26 21 49 21 53 0 30 248 542 339 699 28 49 51 90 51 92 0 14 235 376 333
514 55 77 150 205 156 210 3 3 33 39 66 80 218 275 592 663 814 846 13 10 31
26 40 35 32 31 229 187 329 262 189 141 355 253 552 370 184 110 197 118 410
226 303 154 562 262 880 368 110 36 329 101 400 119 16 4 223 53 255 61 115
27 454 85 575 98 30 3 66 8 80 10 14 3 60 7 102 10 43 4 86 8 96 10 10 1 85 6
167 10 83 4 151 8 153 10 5 5 546 -3 632 -9z"/>
<path d="M8127 10634 c-1 -1 -33 -4 -72 -8 -114 -9 -151 -15 -280 -40 -349
-69 -724 -245 -1013 -477 -218 -175 -455 -454 -587 -691 -110 -197 -217 -474
-251 -653 -2 -11 -10 -54 -18 -95 -14 -69 -23 -130 -32 -220 -6 -64 -6 -354 1
-415 7 -65 32 -238 39 -270 85 -400 262 -765 518 -1071 47 -56 215 -222 283
-280 309 -262 712 -454 1098 -524 60 -11 77 -14 182 -27 33 -5 155 -8 270 -8
249 0 307 6 515 52 106 23 246 62 295 82 282 115 425 193 609 330 131 99 159
122 283 247 168 171 354 430 441 617 12 26 31 66 42 90 67 146 146 403 165
542 3 22 8 47 10 55 2 8 6 38 10 65 3 28 8 70 11 95 6 53 7 396 0 425 -2 11
-7 49 -11 85 -32 304 -167 688 -332 948 -18 29 -33 55 -33 58 0 2 -4 10 -10
17 -5 7 -38 50 -72 97 -35 47 -74 98 -88 115 -53 64 -278 284 -345 337 -330
264 -776 454 -1175 502 -25 3 -63 8 -85 12 -35 5 -363 12 -368 8z"/>
</g>
</svg>
