<?xml version="1.0" standalone="no"?>
<!DOCTYPE svg PUBLIC "-//W3C//DTD SVG 20010904//EN"
 "http://www.w3.org/TR/2001/REC-SVG-20010904/DTD/svg10.dtd">
<svg version="1.0" xmlns="http://www.w3.org/2000/svg"
 width="800.000000pt" height="800.000000pt" viewBox="0 0 800.000000 800.000000"
 preserveAspectRatio="xMidYMid meet">
<metadata>
Created by potrace 1.11, written by Peter Selinger 2001-2013
</metadata>
<g transform="translate(0.000000,800.000000) scale(0.100000,-0.100000)"
fill="#000000" stroke="none">
<path d="M3809 6636 c-2 -2 -38 -7 -79 -10 -42 -4 -87 -8 -100 -11 -196 -33
-323 -63 -465 -110 -386 -129 -734 -344 -1020 -629 -130 -130 -163 -168 -261
-298 -154 -206 -305 -486 -370 -688 -28 -84 -65 -205 -69 -220 -2 -8 -10 -46
-19 -84 -19 -80 -42 -220 -53 -321 -10 -90 -10 -462 0 -540 16 -118 30 -207
43 -265 3 -14 7 -36 10 -50 35 -169 117 -396 213 -589 201 -405 506 -752 886
-1010 55 -37 107 -71 115 -74 8 -4 31 -17 50 -28 236 -144 603 -273 889 -315
25 -4 55 -8 66 -10 143 -26 547 -25 725 2 102 15 215 38 295 60 50 14 95 26
100 27 46 12 170 58 267 99 624 263 1128 767 1398 1397 62 147 125 340 143
441 3 14 12 59 20 100 34 164 42 256 42 485 0 217 -6 293 -36 465 -53 310
-167 615 -333 894 -29 48 -43 83 -38 90 8 10 29 75 40 121 3 11 5 65 5 120 0
136 -29 230 -106 334 -79 106 -176 177 -296 215 -102 32 -264 31 -358 -3 l-62
-22 -48 27 c-26 15 -55 33 -63 40 -24 20 -267 139 -355 174 -77 31 -268 96
-310 105 -113 25 -270 55 -310 60 -27 4 -61 9 -75 11 -30 6 -476 15 -481 10z
m436 -501 c28 -3 61 -8 75 -11 14 -2 41 -7 60 -10 69 -11 267 -64 346 -93 142
-52 244 -100 352 -164 52 -31 52 -31 45 -72 -22 -132 11 -306 79 -410 75 -116
199 -211 328 -250 64 -20 206 -28 262 -16 38 9 40 8 62 -28 83 -130 198 -417
232 -572 18 -86 35 -180 40 -219 17 -158 20 -203 18 -327 -1 -76 -4 -154 -7
-173 -3 -19 -9 -60 -12 -90 -46 -408 -266 -860 -575 -1184 -352 -367 -833
-603 -1335 -653 -140 -14 -428 -7 -540 13 -184 33 -351 79 -485 134 -76 31
-249 118 -281 141 -15 10 -30 19 -34 19 -11 0 -162 107 -230 163 -92 76 -183
164 -255 247 -36 41 -67 77 -70 80 -3 3 -28 37 -56 75 -177 243 -299 517 -363
810 -36 169 -46 266 -45 460 0 142 9 288 18 304 2 3 6 29 10 58 3 28 19 103
36 167 120 467 387 871 770 1168 140 108 286 194 480 282 36 16 239 85 269 91
15 3 86 20 136 31 41 10 123 22 205 30 36 4 67 8 68 9 6 6 345 -3 397 -10z"/>
<path d="M3880 4849 c-384 -46 -690 -345 -745 -729 -38 -260 54 -536 241 -724
228 -227 573 -310 872 -210 208 70 386 219 490 410 146 269 128 621 -44 881
-76 114 -219 238 -334 292 -65 29 -150 61 -150 56 0 -2 -12 0 -27 6 -54 20
-205 29 -303 18z"/>
</g>
</svg>
